<svg xmlns="http://www.w3.org/2000/svg" viewBox="0 0 32 32">
  <rect width="32" height="32" rx="6" fill="#7c3aed"/>
  <path d="M8 7h10a2 2 0 0 1 2 2v14a2 2 0 0 1-2 2H8a2 2 0 0 1-2-2V9a2 2 0 0 1 2-2z" fill="white" fill-opacity="0.9"/>
  <path d="M20 7h4v16h-4a2 2 0 0 1-2-2V9a2 2 0 0 1 2-2z" fill="white" fill-opacity="0.6"/>
  <circle cx="11" cy="16" r="3" fill="#7c3aed"/>
  <path d="M11 14.5v3M9.5 16h3" stroke="white" stroke-width="1.2" stroke-linecap="round"/>
  <path d="M22 13v6M22 13h3M22 19h3" stroke="white" stroke-width="1.5" stroke-linecap="round"/>
</svg>
